<?xml version="1.0" standalone="no"?>
<!DOCTYPE svg PUBLIC "-//W3C//DTD SVG 1.1//EN" "http://www.w3.org/Graphics/SVG/1.1/DTD/svg11.dtd" >
<svg xmlns="http://www.w3.org/2000/svg">
<metadata>
Created by FontForge 20120731 at Wed Apr  6 13:27:08 2016
 By admin
</metadata>
<defs>
<font id="iconfont" horiz-adv-x="1024" >
  <font-face 
    font-family="iconfont"
    font-weight="500"
    font-stretch="normal"
    units-per-em="1024"
    panose-1="2 0 6 3 0 0 0 0 0 0"
    ascent="896"
    descent="-128"
    x-height="792"
    bbox="-0.363636 -152 1324 896"
    underline-thickness="50"
    underline-position="-100"
    unicode-range="U+0078-E623"
  />
<missing-glyph horiz-adv-x="374" 
d="M34 0v682h272v-682h-272zM68 34h204v614h-204v-614z" />
    <glyph glyph-name=".notdef" horiz-adv-x="374" 
d="M34 0v682h272v-682h-272zM68 34h204v614h-204v-614z" />
    <glyph glyph-name=".null" horiz-adv-x="0" 
 />
    <glyph glyph-name="nonmarkingreturn" horiz-adv-x="341" 
 />
    <glyph glyph-name="x" unicode="x" horiz-adv-x="1001" 
d="M281 543q-27 -1 -53 -1h-83q-18 0 -36.5 -6t-32.5 -18.5t-23 -32t-9 -45.5v-76h912v41q0 16 -0.5 30t-0.5 18q0 13 -5 29t-17 29.5t-31.5 22.5t-49.5 9h-133v-97h-438v97zM955 310v-52q0 -23 0.5 -52t0.5 -58t-10.5 -47.5t-26 -30t-33 -16t-31.5 -4.5q-14 -1 -29.5 -0.5
t-29.5 0.5h-32l-45 128h-439l-44 -128h-29h-34q-20 0 -45 1q-25 0 -41 9.5t-25.5 23t-13.5 29.5t-4 30v167h911zM163 247q-12 0 -21 -8.5t-9 -21.5t9 -21.5t21 -8.5q13 0 22 8.5t9 21.5t-9 21.5t-22 8.5zM316 123q-8 -26 -14 -48q-5 -19 -10.5 -37t-7.5 -25t-3 -15t1 -14.5
t9.5 -10.5t21.5 -4h37h67h81h80h64h36q23 0 34 12t2 38q-5 13 -9.5 30.5t-9.5 34.5q-5 19 -11 39h-368zM336 498v228q0 11 2.5 23t10 21.5t20.5 15.5t34 6h188q31 0 51.5 -14.5t20.5 -52.5v-227h-327z" />
    <glyph glyph-name="uniE600" unicode="&#xe600;" 
d="M510 407zM744 326q1 3 1 7v1v1q0 4 -1 7l-1 1q0 1 -1 2q-1 3 -3 5l-363 362q-6 6 -14.5 6.5t-14.5 -4.5l-67 -68q-6 -5 -5.5 -13.5t7.5 -15.5l283 -283l-283 -283q-7 -7 -7.5 -15.5t5.5 -13.5l67 -68q6 -5 14.5 -4.5t14.5 6.5l363 363q2 1 3 4q1 1 1 2z" />
    <glyph glyph-name="uniE601" unicode="&#xe601;" 
d="M128 556h86v-85h-86v85zM341 556h555v-85h-555v85zM128 343h86v-86h-86v86zM341 343h555v-86h-555v86zM128 129h86v-85h-86v85zM341 129h555v-85h-555v85z" />
    <glyph glyph-name="uniE602" unicode="&#xe602;" 
d="M513 896q16 0 22 -6.5t7 -12.5q1 -11 -2 -15.5t0 -14.5q2 -5 6 -11.5t17 -10.5q14 -4 30 -12t30 -26q4 -6 7.5 -14t5.5 -16q3 -9 4 -17h-254q1 7 3 14q2 6 4 13t7 15q8 14 24.5 25.5t33.5 16.5t19.5 8.5t6.5 9.5q4 5 3 13.5t-3 15.5q-3 13 7.5 19t21.5 6zM688 661
q0 -43 -42 -43h-266q-42 0 -42 43q0 19 12 30t30 11h266q22 0 32 -12.5t10 -28.5zM561 577q30 0 56 -4t45 -16t30.5 -33.5t11.5 -55.5v-392q0 -27 -5.5 -43t-16.5 -25t-28 -12t-40 -3h-45h-46q-24 0 -50.5 -0.5t-59 -0.5t-50.5 6.5t-27.5 19t-11.5 29.5t-2 40v354
q0 34 2.5 51t9.5 34q7 18 25 27.5t38.5 15t38.5 7t25 1.5h52h12q6 0 14.5 -0.5t21.5 0.5zM458 425q0 14 -10 24t-23.5 10t-23.5 -10t-10 -24v-281q0 -14 10 -24t23.5 -10t23.5 10t10 24v281z" />
    <glyph glyph-name="uniE603" unicode="&#xe603;" 
d="M341 447h342q36 0 61 25.5t25 60.5v278q0 35 -25 60t-61 25h-342q-35 0 -60 -25t-25 -60v-278q0 -35 25 -60.5t60 -25.5zM321 804q0 11 8 19t19 8h328q12 0 20 -8t8 -19v-265q0 -11 -8 -19.5t-20 -8.5h-328q-11 0 -19 8.5t-8 19.5v265zM936 567h-73q-37 0 -65.5 -26.5
t-28.5 -61.5v-101q-15 5 -28 5h-457q-13 0 -27 -5v101q0 37 -24.5 62.5t-58.5 25.5h-75q-37 0 -68 -27t-31 -61v-444q0 -34 31 -66.5t68 -32.5h93v-64h64v64h512v-64h64v64h104q35 0 61.5 31.5t26.5 67.5v444q0 37 -26.5 62.5t-61.5 25.5zM257 292q0 11 8 19t19 8h457
q12 0 20 -8t8 -19v-73q0 -11 -8 -19t-20 -8h-457q-11 0 -19 8t-8 19v73zM960 40q0 -14 -8 -27.5t-16 -13.5h-837q-10 0 -22.5 14.5t-12.5 26.5v439q0 11 11.5 20.5t23.5 9.5h69q11 0 18 -9t7 -21v-356h640v85v139v132q0 10 11.5 20t24.5 10h67q11 0 17.5 -9t6.5 -21v-439z
M960 40z" />
    <glyph glyph-name="uniE604" unicode="&#xe604;" 
d="M920 686h-679l-12 97q-1 12 -10.5 20t-21.5 8h-7q-4 0 -7 -1h-83q-15 0 -25 -9t-10 -22.5t10 -22.5t25 -9h69l67 -548q1 -12 10.5 -20.5t21.5 -8.5h7q4 0 7 1h549q15 0 25 9.5t10 22.5t-10 22.5t-25 9.5h-535l-8 67h545q12 0 22.5 8t12.5 20l74 327q3 12 -3.5 20.5
t-18.5 8.5zM295 30q0 -32 22.5 -54.5t54.5 -22.5t55 22.5t23 54.5t-23 55t-55 23t-54.5 -23t-22.5 -55zM679 30q0 -32 22.5 -54.5t54.5 -22.5t55 22.5t23 54.5t-23 55t-55 23t-54.5 -23t-22.5 -55z" />
    <glyph glyph-name="uniE605" unicode="&#xe605;" 
d="M4 27v51h1020v-51h-1020zM4 409h1020v-51h-1020v51zM4 740h1020v-51h-1020v51z" />
    <glyph glyph-name="uniE606" unicode="&#xe606;" 
d="M512 -47q-117 0 -216.5 58t-157.5 157t-58 216t58 216t157.5 157t216.5 58t216.5 -58t157.5 -157t58 -216t-58 -216t-157.5 -157t-216.5 -58zM512 750q-99 0 -183.5 -49t-133.5 -133t-49 -183t49 -183t133 -133t184 -49q99 0 183 49t133.5 133t49.5 183t-49.5 183
t-133.5 133t-183 49zM510 199q-67 0 -143 30q-47 3 -80 37.5t-33 82.5v101q0 49 35 84.5t84 35.5h276q50 0 85 -35.5t35 -84.5v-101q0 -48 -33 -82.5t-80 -37.5q-72 -30 -146 -30zM375 504q-23 0 -38.5 -16t-15.5 -38v-101q0 -22 15.5 -38t38.5 -16h6l7 -2l7 -3t19.5 -6.5
t27 -7.5t33.5 -7t36 -3q13 0 26.5 1.5t25.5 4t23.5 5.5t20.5 5.5t16 5t11 4.5l4 1l7 2h6q23 0 38.5 16t15.5 38v101q0 22 -15.5 38t-38.5 16h-276zM706 17l-95 232l61 25l95 -232zM342 13l-61 23l91 236l61 -24zM917 301h-191v65h191v-65zM917 444h-191v66h191v-66zM304 301
h-191v65h191v-65zM304 444h-191v66h191v-66z" />
    <glyph glyph-name="uniE607" unicode="&#xe607;" 
d="M894 782h-765q-26 0 -44.5 -19t-18.5 -45v-510q0 -26 18.5 -45t44.5 -19h319v-95h-159q-14 0 -23 -9.5t-9 -22.5v-32h510v32q0 13 -9.5 22.5t-22.5 9.5h-160v95h319q27 0 45.5 19t18.5 45v510q0 26 -18.5 45t-45.5 19zM480 208q0 13 9.5 22.5t22.5 9.5t22.5 -9.5
t9.5 -22.5t-9.5 -22.5t-22.5 -9.5t-22.5 9.5t-9.5 22.5zM129 272v446h765v-446h-765z" />
    <glyph glyph-name="uniE608" unicode="&#xe608;" 
d="M756 474l-67 69l-177 -180l-176 180l-68 -69l244 -249z" />
    <glyph glyph-name="uniE609" unicode="&#xe609;" 
d="M85 306q0 85 60.5 145.5t145.5 60.5h442q85 0 145.5 -60.5t60.5 -146t-60.5 -145.5t-145.5 -60h-442q-85 0 -145.5 60t-60.5 146zM28 306q0 -109 77 -186t186 -77h442q108 0 185.5 77t77.5 186t-77 186t-186 77h-442q-108 0 -185.5 -77t-77.5 -186zM654 540v100
q0 12 -8 20t-20 8t-20.5 -8t-8.5 -20v-100q0 -11 8.5 -19.5t20.5 -8.5t20 8.5t8 19.5zM740 782q-59 0 -101 -41.5t-42 -100.5q0 -12 8.5 -20t20.5 -8t20 8t8 20q0 35 25 60t61 25q11 0 19.5 8.5t8.5 20.5t-8.5 20t-19.5 8zM341 199v228q0 12 -8 20t-20 8t-20.5 -8t-8.5 -20
v-228q0 -12 8.5 -20t20.5 -8t20 8t8 20zM199 284h228q12 0 20.5 8.5t8.5 20.5t-8.5 20t-20.5 8h-228q-12 0 -20 -8t-8 -20t8 -20.5t20 -8.5zM711 327q24 0 40.5 16.5t16.5 40.5t-16.5 40.5t-40 16.5t-40.5 -16.5t-17 -40.5t17 -40.5t40 -16.5zM711 384v0v0zM711 156
q24 0 40.5 17t16.5 40.5t-16.5 40t-40 16.5t-40.5 -16.5t-17 -40t17 -40.5t40 -17zM711 213v0v0z" />
    <glyph glyph-name="uniE60A" unicode="&#xe60a;" 
d="M566 -110h-54h-54q-116 0 -163 16q-76 26 -76 106v744q0 25 8 45t19.5 32.5t33.5 21.5t38.5 13.5t46 7t45.5 2.5h48h54h54h48q16 0 45.5 -2.5t46 -7t38.5 -13.5t33.5 -21.5t19.5 -32.5t8 -45v-743q0 -26 -8 -46t-19.5 -32.5t-33.5 -21.5t-38.5 -13.5t-46 -7t-45.5 -2.5
h-48zM512 -68h54q111 0 154 15.5t43 64.5v744q0 49 -43 64.5t-154 15.5h-54h-54q-111 0 -154 -15.5t-43 -64.5v-744q0 -49 48 -66q40 -14 149 -14h54zM502 -54q-28 0 -48 19.5t-20 47.5t20 48t48 20t47.5 -20t19.5 -48t-19.5 -47.5t-47.5 -19.5zM502 38q-10 0 -17.5 -7.5
t-7.5 -17.5t7.5 -17.5t17.5 -7.5t17.5 7.5t7.5 17.5t-7.5 17.5t-17.5 7.5zM512 778zM411 799h202v-43h-202v43zM743 118h-462v606h462v-606zM324 160h376v521h-376v-521z" />
    <glyph glyph-name="uniE60B" unicode="&#xe60b;" 
d="M207 672h608q6 0 11 4.5t5 11t-5 11.5t-11 5h-112v111q0 7 -5 11.5t-11.5 4.5t-11 -4.5t-4.5 -11.5v-111h-464q-6 0 -11 -5t-5 -11.5t5 -11t11 -4.5zM847 640h-672q-6 0 -11 -5t-5 -11.5t5 -11t11 -4.5h672q6 0 11 4.5t5 11t-5 11.5t-11 5zM767 576h-512q-26 0 -45 -19
t-19 -45l64 -512q0 -26 19 -44.5t45 -18.5h384q26 0 45 18.5t19 44.5l64 512q0 26 -19 45t-45 19zM735 0q0 -13 -9.5 -22.5t-22.5 -9.5h-384q-13 0 -22.5 9.5t-9.5 22.5l-64 512q0 13 9.5 22.5t22.5 9.5h512q13 0 22.5 -9.5t9.5 -22.5z" />
    <glyph glyph-name="uniE60C" unicode="&#xe60c;" horiz-adv-x="1025" 
d="M782 280q17 -81 30 -146l12 -54l10 -50q4 -23 7 -39t4 -20q3 -20 -9.5 -27t-27.5 -7q-5 0 -14.5 3.5t-14.5 5.5l-267 155q-72 -42 -131 -76q-26 -14 -51 -28.5t-45 -26.5t-35 -20.5t-20 -10.5q-10 -5 -21 -3.5t-19.5 8t-12.5 15t-2 17.5l5 20q4 16 9 38t11.5 48.5
t14.5 53.5q15 63 34 143q-60 52 -108 93l-40 34q-20 17 -36 30.5t-26 22.5t-11 10q-12 11 -21 24.5t-7 28t11.5 22.5t20.5 10l315 29l117 273q7 17 18 28.5t30 11.5q11 0 18.5 -4.5t12.5 -10.5t8.5 -12.5t5.5 -10.5l114 -273l316 -30q20 -5 28 -12t8 -22t-8.5 -25.5
t-21.5 -25.5z" />
    <glyph glyph-name="uniE60D" unicode="&#xe60d;" 
d="M917 780h-22v56q0 25 -17.5 42.5t-42.5 17.5h-559q-25 0 -42.5 -17.5t-17.5 -42.5v-57q-64 -3 -89.5 -17t-25.5 -58v-161q0 -38 27.5 -62.5t66.5 -24.5h284h1q17 0 26 -12t9 -31v-126h-34q-11 0 -18.5 -7.5t-7.5 -18.5v-362q0 -10 7.5 -18.5t18.5 -8.5h134q10 0 19 9
t9 19v361q0 11 -7.5 18.5t-17.5 7.5h-37v139q0 39 -27.5 66.5t-65.5 27.5h-1h-282q-17 0 -28.5 12.5t-11.5 31.5v130q0 4 1 7t3 5t4 3.5t5.5 2.5t6 1.5t7.5 1t7.5 0.5t8 -0.5t8.5 -0.5v-56q0 -27 13 -45t37 -18h579q24 0 37 18t13 45v57h22q10 0 18 11t8 22t-8 21.5
t-18 10.5zM579 -65h-63v289h63v-289zM289 659q-9 0 -9 9v155q0 9 9 9h533q9 0 9 -9v-155q0 -9 -9 -9h-533z" />
    <glyph glyph-name="uniE60E" unicode="&#xe60e;" 
d="M705 -80h-386q-17 0 -26.5 9.5t-10.5 19.5l-2 10v386q0 17 9.5 27t19.5 11l10 1h38v116q0 17 10 26.5t16.5 11t11.5 1.5h194v232l-154 -78v-77h-39v116l193 116l39 -39v-270q2 0 4.5 -0.5t9 -2.5t11.5 -6t9.5 -11.5t4.5 -18.5v-116h38q2 0 4.5 -0.5t9 -2.5t12 -6
t9.5 -11.5t4 -18.5v-386q0 -2 -0.5 -4.5t-2.5 -9t-6 -12t-11.5 -9.5t-18.5 -4zM628 500h-232v-116h232v116zM705 345h-386v-386h386v386z" />
    <glyph glyph-name="uniE60F" unicode="&#xe60f;" horiz-adv-x="1756" 
d="M1267 533q-30 60 -41 142q-151 -44 -124 -257q-146 139 -128 478q-52 -16 -93.5 -41t-69.5 -53t-47 -65.5t-29.5 -69.5t-14 -75.5t-3.5 -73t5.5 -71.5t9.5 -62.5t11.5 -54.5t8.5 -39q-27 15 -50 47t-36.5 66t-23.5 67.5t-14 53t-4 21.5q-60 -31 -93.5 -104.5
t-33.5 -150.5q0 -113 55.5 -208t150.5 -150.5t207.5 -55.5t208 55.5t150.5 150.5t55 208q0 143 -57 242zM911 -60q-146 0 -246 100t-104 251q-1 28 12 76t23 58q1 0 7 -18.5t8.5 -25t11 -26t15 -29t19 -27t24 -27t29 -22.5t36 -19.5t42.5 -11.5t51 -5q-3 12 -13 51t-15 59
t-13 61.5t-11 66.5t-5 65t2 67t12 61.5t23 60t38 50.5t54 44q0 -134 29 -237.5t92 -166.5t152 -63q-10 30 -16 70t-3.5 84.5t16.5 72.5q4 -10 26 -59t37.5 -103t16.5 -107q-13 -152 -110 -251.5t-240 -99.5z" />
    <glyph glyph-name="uniE610" unicode="&#xe610;" 
d="M402 -35q-14 0 -24 10q-24 26 -56.5 45.5t-58.5 28.5t-54.5 14t-39 5.5t-16.5 0.5q-14 0 -23.5 9.5t-9.5 22.5t9.5 22.5t22.5 10.5q6 0 21 -1t48 -7t65.5 -17t71.5 -35t69 -56q9 -10 8 -23t-11 -22q-9 -8 -22 -8v0zM621 -35q-13 0 -22 8q-10 9 -10.5 22.5t8.5 22.5
q31 33 70.5 56.5t72 34.5t65 17t47 7t20.5 1q13 0 22.5 -9.5t9.5 -23t-9.5 -22.5t-23.5 -9v0q-6 0 -16.5 -1t-38.5 -6t-54 -14t-59 -28.5t-58 -45.5q-10 -10 -24 -10v0zM564 127h-104q-4 0 -9 2q-83 10 -151.5 56t-113.5 122q-53 87 -64 191.5t24 185.5q8 19 29 20h10
q94 0 173 -34q58 103 130 155q4 3 9 5q16 7 31 -3q3 -1 4 -3q72 -52 130 -156q81 36 177 36h10q21 0 29 -20q35 -81 24 -185.5t-64 -191.5q-45 -76 -113.5 -122t-151.5 -56q-5 -2 -9 -2v0zM466 192h92h2q143 16 222 147q41 69 53 152t-10 149q-89 -3 -162 -43
q-12 -6 -25.5 -2t-19.5 16q-50 99 -108 149q-59 -50 -108 -147q-6 -12 -19.5 -16t-25.5 2q-71 38 -158 41q-22 -66 -10 -149t53 -152q79 -132 222 -147h2v0zM512 -63q-14 0 -23.5 9t-9.5 23v191q0 13 9.5 22.5t23 9.5t23 -9.5t9.5 -22.5v-191q0 -14 -9.5 -23t-22.5 -9v0z
M512 -63z" />
    <glyph glyph-name="uniE611" unicode="&#xe611;" 
d="M858 401l-460 467q-5 6 -13 6t-13.5 -5.5t-5.5 -13t6 -12.5l447 -455l-453 -453q-6 -5 -6 -12.5t5.5 -13t13.5 -5.5t13 5l466 466q5 5 5 13t-5 13z" />
    <glyph glyph-name="uniE612" unicode="&#xe612;" 
d="M68 547h95v-95h-95v95zM715 -21h-4h-374q-66 0 -101 41q-33 38 -28 91v206h-141v95h236l-1 -310q-1 -12 6 -20q7 -7 29 -7h379q14 1 14 34v310h134v195l-166 46q-65 -97 -191 -97q-57 0 -108.5 24t-79.5 75l-156 -41v-30h-95v104l313 81l12 -46q11 -41 49 -58
q29 -14 65 -14q27 0 49.5 8t35 17.5t22 22t12 18t3.5 7.5l15 43l316 -87v-363h-135v-215q0 -67 -39 -102q-30 -28 -71 -28zM539 415h137v-95h-137v95z" />
    <glyph glyph-name="uniE613" unicode="&#xe613;" 
d="M413 633h96v-96h-96v96zM941 -5h-843v46q-1 38 7.5 80t31.5 91t57.5 90.5t92 75.5t130.5 48v72h93v-154l-42 -4q-59 -7 -106.5 -28.5t-76 -47.5t-48.5 -60.5t-28.5 -61t-13.5 -54.5h653v619h-344v-33h-93v126h530v-805z" />
    <glyph glyph-name="uniE614" unicode="&#xe614;" 
d="M263 704l63 -70l-70 -63l-63 70zM520 791q-35 1 -70 -4q-50 -7 -121 -42l37 -87q53 26 94 34v-287h-265q2 21 7 41l1 5q6 46 32 85l-77 57q-39 -57 -49 -128q-11 -47 -11 -96q0 -114 56.5 -211t153.5 -153.5t211.5 -56.5t211.5 56.5t153.5 153.5t56.5 211.5t-56.5 211.5
t-153.5 153.5t-211 56.5zM557 694q70 -8 131 -45q-52 -62 -131 -79v124zM557 471q125 19 206 116q70 -78 81 -182h-287v66zM460 48q-61 11 -115 45q50 44 115 55v-100zM557 147q70 -14 120 -64q-56 -31 -120 -38v102zM460 246q-109 -13 -189 -89q-56 66 -72 151h261v-62z
M754 142q-80 87 -197 103v63h284q-19 -95 -87 -166z" />
    <glyph glyph-name="uniE615" unicode="&#xe615;" 
d="M180 377l64 54l55 -64l-64 -54zM803 709l-564 1l-125 -244l48 -63l67 52l-16 20l77 150h457l64 -150l-304 -354l-193 221l-63 -56l257 -294l401 468z" />
    <glyph glyph-name="uniE616" unicode="&#xe616;" 
d="M303 718l34 -79l-79 -35l-35 80zM837 354l91 185h-223v52v8q0 54 -70 94t-200 40q-51 0 -98 -8l15 -83q39 7 83 7q53 0 97 -9.5t64.5 -20.5t24.5 -20q-4 -8 -24.5 -19t-64.5 -20.5t-97 -9.5q-54 0 -98.5 10t-64.5 21t-23 18l-62 56q0 -1 -4.5 -8t-9.5 -23t-6 -38
q1 -459 1 -464q0 -63 75.5 -104t192 -41t192.5 41t76 104v40h219zM620 122q0 -5 -7.5 -13t-23 -16.5t-37 -16t-52 -12t-65 -4.5t-65 4.5t-52 12t-37 16t-23 16.5t-7.5 13q0 6 -1 377q72 -33 185 -33q114 0 186 33q-1 -370 -1 -377zM704 246v210h90l-49 -100l50 -110h-91z
" />
    <glyph glyph-name="uniE617" unicode="&#xe617;" 
d="M430 -61q-11 0 -22 3t-20.5 8.5t-17.5 13.5l-68 70q-9 10 -9 23t10 23q11 10 16.5 23.5t5.5 28.5q0 8 -1 15t-4 13.5t-7 13t-9 11.5q-21 21 -52.5 21.5t-52.5 -20.5q-10 -9 -23 -9q-14 0 -23 10l-68 70q-24 25 -23.5 59.5t25.5 58.5l443 435q16 15 38 20.5t43.5 -0.5
t37.5 -21l68 -71q9 -9 8.5 -22.5t-9.5 -22.5q-22 -22 -22.5 -52.5t21.5 -52.5q21 -22 52.5 -22.5t52.5 20.5q5 5 10.5 7t12.5 2q3 0 6.5 -0.5t6 -1.5t5 -3t5.5 -4l68 -70q7 -8 12.5 -17.5t8.5 -20t2 -21.5q0 -35 -25 -60l-443 -434q-12 -12 -27 -18t-32 -6zM368 59l48 -50
q6 -6 14 -6t14 6l443 434q6 6 6 14q0 4 -1 7.5t-4 6.5l-49 50q-7 -5 -16 -8.5t-18 -6t-18 -4t-19 -1.5q-58 0 -99 42q-40 41 -39 98q0 40 21 73l-48 50q-6 5 -14 5.5t-14 -5.5l-444 -434q-2 -2 -3 -4l-2 -6q-1 -2 -1 -4q0 -8 6 -14l48 -50q33 20 72 20q28 0 53.5 -11
t45.5 -31q40 -41 39 -99q0 -39 -21 -72zM354 313q-6 0 -12 2.5t-10 6.5q-7 6 -9 14.5t0 16.5t9 14l178 179q10 9 23 9t22.5 -9t9.5 -22.5t-9 -22.5l-179 -179q-10 -9 -23 -9zM450 217q-3 0 -6 0.5t-6 2t-5.5 3t-5.5 4.5q-9 9 -9 22t9 23l179 178q9 10 22.5 10t22.5 -9.5
t9 -22.5t-9 -23l-179 -178q-9 -10 -22 -10z" />
    <glyph glyph-name="uniE618" unicode="&#xe618;" 
d="M252 371l486 -493q5 -6 13 -6t14 5.5t6 13.5t-6 14l-471 480l478 478q5 6 5 14t-5.5 13.5t-13.5 5.5t-14 -6l-492 -491q-5 -6 -5 -14t5 -14z" />
    <glyph glyph-name="uniE619" unicode="&#xe619;" 
d="M315 752l-59 -60l392 -392l-392 -392l59 -60l453 452z" />
    <glyph glyph-name="uniE61A" unicode="&#xe61a;" 
d="M341 471l-85 -86l255 -256l257 256l-85 86l-171 -171z" />
    <glyph glyph-name="uniE61B" unicode="&#xe61b;" 
d="M552 299l231 232q8 8 8 19.5t-8 19.5t-19 8t-19 -8l-232 -232l-232 232q-8 8 -19 8t-19 -8t-8 -19.5t8 -19.5l231 -232l-231 -232q-8 -8 -8 -19t8 -19t19 -8t19 8l232 231l232 -231q8 -8 19 -8t19 8t8 19t-8 19z" />
    <glyph glyph-name="uniE61C" unicode="&#xe61c;" 
d="M738 646q12 12 12 29t-12.5 29t-30 12t-29.5 -12l-378 -367q-12 -12 -12 -29t12 -29l378 -367q12 -12 29.5 -12t30 12.5t12.5 29.5t-12 29l-347 337z" />
    <glyph glyph-name="uniE61D" unicode="&#xe61d;" 
d="M692 428q0 -1 1 -1.5t1 -1.5q13 -28 -9 -49l-316 -297q-12 -12 -30 -11.5t-30 13t-11.5 30.5t12.5 30l284 266l-282 271q-13 12 -13.5 29.5t11.5 30.5q13 13 31 13t30 -12l313 -300v-1h2v-2h1q1 -1 5 -8zM692 428z" />
    <glyph glyph-name="uniE61E" unicode="&#xe61e;" 
d="M896 655q26 0 40 -7q7 -3 12 -7t8 -9q6 -10 5 -21v-8q0 -2 -1 -6t-2 -6l-12 -33l-19 -55l-21 -59q-12 -36 -16 -47q-6 -17 -13.5 -29.5t-16.5 -19.5q-18 -14 -44 -14h-479l14 -80h459q44 0 44 -37q0 -18 -9 -31q-8 -13 -34 -13h-478q-6 0 -11.5 1t-10 2.5t-8.5 4.5
q-12 8 -20 21q-4 6 -7.5 13t-6.5 15q-5 19 -7 29l-5 26l-11 51l-13 69l-15 77l-39 200h-68q-14 0 -22 6q-9 7 -17 16q-2 6 -4.5 11t-3.5 10t-1.5 10.5t-0.5 8.5q0 18 12 30q8 5 16 8t18 3h92q18 0 29 -5q5 -3 9.5 -6t8.5 -7q6 -9 8 -17l6 -16q1 -4 3 -15v-5l4 -25l5 -34h623
zM743 147q8 0 17 -1q8 -2 16 -5q17 -6 28 -18q12 -12 19 -26q6 -15 6 -31q0 -8 -1.5 -17t-4.5 -15q-7 -14 -19 -27q-11 -11 -28 -17q-15 -7 -33 -7t-33 7q-16 7 -26 17q-12 13 -18 27q-7 15 -7 32q0 7 1.5 15.5t5.5 15.5q6 14 18 26q5 6 12 10.5t14 7.5q5 2 10.5 3.5t11 2
t11.5 0.5zM364 149q17 0 33 -6q15 -6 27 -18q7 -6 11.5 -12.5t7.5 -13.5q7 -16 7 -32t-7 -31q-6 -14 -19 -27q-12 -11 -27.5 -17.5t-32.5 -6.5q-18 0 -33 6q-15 7 -27 18q-12 13 -18 27q-6 15 -6 31.5t6 31.5q3 8 7.5 14t10.5 12q4 4 9 7l8 6q5 3 10 5q4 1 8 2.5t8 2t8.5 1
t8.5 0.5zM364 149z" />
    <glyph glyph-name="uniE61F" unicode="&#xe61f;" 
d="M627 639zM152 -36l-66 65l199 199l33 -32q89 -90 215.5 -90t216 89.5t89.5 216t-89.5 216t-215.5 89.5q-64 0 -121.5 -24.5t-98.5 -69.5q-45 -49 -69 -109t-14 -152l-92 -9q-7 61 0 114t25 94t37 69t45 56q54 59 129 91t159 32q108 0 199.5 -53t145 -145t53.5 -199.5
t-53.5 -199.5t-145 -145t-199.5 -53q-139 0 -247 85zM178 221l-26 87l88 26l26 -87z" />
    <glyph glyph-name="uniE620" unicode="&#xe620;" 
d="M756 -111l-37 -36l-451 447l451 447l37 -36l-414 -411zM756 -111z" />
    <glyph glyph-name="uniE621" unicode="&#xe621;" 
d="M756 -128q-10 0 -17 7l-488 488q-7 7 -7 17t7 17l488 488q7 7 17 7t17 -7.5t7 -17t-7 -16.5l-471 -471l471 -471q7 -7 7 -16.5t-7 -17t-17 -7.5z" />
    <glyph glyph-name="uniE622" unicode="&#xe622;" 
d="M751 418l-478 478l-34 -34l478 -478l-478 -478l34 -34l512 512z" />
    <glyph glyph-name="uniE623" unicode="&#xe623;" 
d="M762 -128l-527 512l527 512l27 -28l-498 -484l498 -484z" />
  </font>
</defs>
</svg>
